<?xml version="1.0" encoding="UTF-8"?>
<svg width="132px" height="32px" viewBox="0 0 132 32" version="1.1" xmlns="http://www.w3.org/2000/svg" xmlns:xlink="http://www.w3.org/1999/xlink">
    <title>ramus</title>
    <g id="Pages" stroke="none" stroke-width="1" fill="none" fill-rule="evenodd">
        <g id="About" transform="translate(-996, -4704)" fill="#000000" fill-rule="nonzero">
            <g id="Group-20-Copy-2" transform="translate(79, 4456)">
                <g id="Group-7" transform="translate(3, 239.2599)">
                    <g id="logo-(1)" transform="translate(914.6, 8.7401)">
                        <g id="RAMUS-Residence" transform="translate(0, 21.5)">
                            <path d="M7.41,10.5 L4.53,10.5 L3.48,6.39 L3.015,6.39 L3.015,10.5 L0,10.5 L0,0 L5.25,0 C5.77,0 6.215,0.1625 6.585,0.4875 C6.955,0.8125 7.14,1.235 7.14,1.755 L7.14,4.65 C7.14,5.34 6.83,5.845 6.21,6.165 L7.41,10.5 Z M3.855,4.65 C3.925,4.65 3.9875,4.6225 4.0425,4.5675 C4.0975,4.5125 4.125,4.45 4.125,4.38 L4.125,2.025 C4.125,1.945 4.0975,1.88 4.0425,1.83 C3.9875,1.78 3.925,1.755 3.855,1.755 L3.015,1.755 L3.015,4.65 L3.855,4.65 Z" id="Shape"></path>
                            <path d="M17.21,10.5 L14.27,10.5 L13.985,8.745 L12.23,8.745 L11.96,10.5 L9.005,10.5 L11.03,0 L15.2,0 L17.21,10.5 Z M13.715,7.005 L13.115,3.27 L12.515,7.005 L13.715,7.005 Z" id="Shape"></path>
                            <polygon id="Path" points="29.23 10.5 26.425 10.5 26.425 4.05 25.255 10.5 23.11 10.5 21.955 4.05 21.955 10.5 19.135 10.5 19.135 0 23.23 0 24.19 5.52 25.135 0 29.23 0"></polygon>
                            <path d="M36.915,10.5 L33.555,10.5 C33.035,10.5 32.59,10.3375 32.22,10.0125 C31.85,9.6875 31.665,9.265 31.665,8.745 L31.665,0 L34.68,0 L34.68,8.475 C34.68,8.555 34.7075,8.62 34.7625,8.67 C34.8175,8.72 34.88,8.745 34.95,8.745 L35.52,8.745 C35.59,8.745 35.6525,8.72 35.7075,8.67 C35.7625,8.62 35.79,8.555 35.79,8.475 L35.79,0 L38.805,0 L38.805,8.745 C38.805,9.265 38.62,9.6875 38.25,10.0125 C37.88,10.3375 37.435,10.5 36.915,10.5 Z" id="Path"></path>
                            <path d="M46.34,10.5 L42.98,10.5 C42.46,10.5 42.015,10.3375 41.645,10.0125 C41.275,9.6875 41.09,9.265 41.09,8.745 L41.09,6.375 L44.105,6.375 L44.105,8.475 C44.105,8.555 44.1325,8.62 44.1875,8.67 C44.2425,8.72 44.305,8.745 44.375,8.745 L44.945,8.745 C45.015,8.745 45.0775,8.72 45.1325,8.67 C45.1875,8.62 45.215,8.555 45.215,8.475 L45.215,6.84 C45.215,6.74 45.165,6.66 45.065,6.6 L42.08,4.98 C41.42,4.63 41.09,4.12 41.09,3.45 L41.09,1.755 C41.09,1.235 41.275,0.8125 41.645,0.4875 C42.015,0.1625 42.46,0 42.98,0 L46.34,0 C46.86,0 47.305,0.1625 47.675,0.4875 C48.045,0.8125 48.23,1.235 48.23,1.755 L48.23,3.735 L45.215,3.735 L45.215,2.025 C45.215,1.945 45.1875,1.88 45.1325,1.83 C45.0775,1.78 45.015,1.755 44.945,1.755 L44.375,1.755 C44.305,1.755 44.2425,1.78 44.1875,1.83 C44.1325,1.88 44.105,1.945 44.105,2.025 L44.105,3.285 C44.105,3.385 44.15,3.465 44.24,3.525 L47.24,5.145 C47.9,5.495 48.23,6 48.23,6.66 L48.23,8.745 C48.23,9.265 48.045,9.6875 47.675,10.0125 C47.305,10.3375 46.86,10.5 46.34,10.5 Z" id="Path"></path>
                            <path d="M63.18,10.5 L60.3,10.5 L59.25,6.39 L58.785,6.39 L58.785,10.5 L55.77,10.5 L55.77,0 L61.02,0 C61.54,0 61.985,0.1625 62.355,0.4875 C62.725,0.8125 62.91,1.235 62.91,1.755 L62.91,4.65 C62.91,5.34 62.6,5.845 61.98,6.165 L63.18,10.5 Z M59.625,4.65 C59.695,4.65 59.7575,4.6225 59.8125,4.5675 C59.8675,4.5125 59.895,4.45 59.895,4.38 L59.895,2.025 C59.895,1.945 59.8675,1.88 59.8125,1.83 C59.7575,1.78 59.695,1.755 59.625,1.755 L58.785,1.755 L58.785,4.65 L59.625,4.65 Z" id="Shape"></path>
                            <polygon id="Path" points="71.24 10.5 65.315 10.5 65.315 0 71.24 0 71.24 1.755 68.33 1.755 68.33 4.17 71.03 4.17 71.03 5.925 68.33 5.925 68.33 8.745 71.24 8.745"></polygon>
                            <path d="M78.565,10.5 L75.205,10.5 C74.685,10.5 74.24,10.3375 73.87,10.0125 C73.5,9.6875 73.315,9.265 73.315,8.745 L73.315,6.375 L76.33,6.375 L76.33,8.475 C76.33,8.555 76.3575,8.62 76.4125,8.67 C76.4675,8.72 76.53,8.745 76.6,8.745 L77.17,8.745 C77.24,8.745 77.3025,8.72 77.3575,8.67 C77.4125,8.62 77.44,8.555 77.44,8.475 L77.44,6.84 C77.44,6.74 77.39,6.66 77.29,6.6 L74.305,4.98 C73.645,4.63 73.315,4.12 73.315,3.45 L73.315,1.755 C73.315,1.235 73.5,0.8125 73.87,0.4875 C74.24,0.1625 74.685,0 75.205,0 L78.565,0 C79.085,0 79.53,0.1625 79.9,0.4875 C80.27,0.8125 80.455,1.235 80.455,1.755 L80.455,3.735 L77.44,3.735 L77.44,2.025 C77.44,1.945 77.4125,1.88 77.3575,1.83 C77.3025,1.78 77.24,1.755 77.17,1.755 L76.6,1.755 C76.53,1.755 76.4675,1.78 76.4125,1.83 C76.3575,1.88 76.33,1.945 76.33,2.025 L76.33,3.285 C76.33,3.385 76.375,3.465 76.465,3.525 L79.465,5.145 C80.125,5.495 80.455,6 80.455,6.66 L80.455,8.745 C80.455,9.265 80.27,9.6875 79.9,10.0125 C79.53,10.3375 79.085,10.5 78.565,10.5 Z" id="Path"></path>
                            <polygon id="Path" points="85.785 10.5 82.77 10.5 82.77 0 85.785 0"></polygon>
                            <path d="M93.5,10.5 L88.25,10.5 L88.25,0 L93.5,0 C94.02,0 94.465,0.1625 94.835,0.4875 C95.205,0.8125 95.39,1.235 95.39,1.755 L95.39,8.745 C95.39,9.265 95.205,9.6875 94.835,10.0125 C94.465,10.3375 94.02,10.5 93.5,10.5 Z M92.105,8.745 C92.175,8.745 92.2375,8.72 92.2925,8.67 C92.3475,8.62 92.375,8.555 92.375,8.475 L92.375,2.025 C92.375,1.945 92.3475,1.88 92.2925,1.83 C92.2375,1.78 92.175,1.755 92.105,1.755 L91.265,1.755 L91.265,8.745 L92.105,8.745 Z" id="Shape"></path>
                            <polygon id="Path" points="103.705 10.5 97.78 10.5 97.78 0 103.705 0 103.705 1.755 100.795 1.755 100.795 4.17 103.495 4.17 103.495 5.925 100.795 5.925 100.795 8.745 103.705 8.745"></polygon>
                            <polygon id="Path" points="113.19 10.5 109.965 10.5 108.735 5.445 108.735 10.5 105.915 10.5 105.915 0 109.125 0 110.37 5.055 110.37 0 113.19 0"></polygon>
                            <path d="M120.83,10.5 L117.47,10.5 C116.95,10.5 116.505,10.3375 116.135,10.0125 C115.765,9.6875 115.58,9.265 115.58,8.745 L115.58,1.755 C115.58,1.235 115.765,0.8125 116.135,0.4875 C116.505,0.1625 116.95,0 117.47,0 L120.83,0 C121.35,0 121.795,0.1625 122.165,0.4875 C122.535,0.8125 122.72,1.235 122.72,1.755 L122.72,4.47 L119.705,4.47 L119.705,2.025 C119.705,1.945 119.6775,1.88 119.6225,1.83 C119.5675,1.78 119.505,1.755 119.435,1.755 L118.865,1.755 C118.795,1.755 118.7325,1.78 118.6775,1.83 C118.6225,1.88 118.595,1.945 118.595,2.025 L118.595,8.475 C118.595,8.555 118.6225,8.62 118.6775,8.67 C118.7325,8.72 118.795,8.745 118.865,8.745 L119.435,8.745 C119.505,8.745 119.5675,8.72 119.6225,8.67 C119.6775,8.62 119.705,8.555 119.705,8.475 L119.705,5.625 L122.72,5.625 L122.72,8.745 C122.72,9.265 122.535,9.6875 122.165,10.0125 C121.795,10.3375 121.35,10.5 120.83,10.5 Z" id="Path"></path>
                            <polygon id="Path" points="131.005 10.5 125.08 10.5 125.08 0 131.005 0 131.005 1.755 128.095 1.755 128.095 4.17 130.795 4.17 130.795 5.925 128.095 5.925 128.095 8.745 131.005 8.745"></polygon>
                        </g>
                        <path d="M71.7241868,0 L72.3332641,0.609077274 L72.0287255,0.91361591 L66.4392641,6.502 L69.3302641,9.393 L75.7241868,3 L76.3332641,3.60907727 L76.0287255,3.91361591 L69.9392641,10.002 L73.3332641,13.396895 L72.7301591,14 L69.3352641,10.606 L62.24688,17.6954614 L61.9423414,18 L61.3332641,17.3909227 L68.7262641,9.997 L65.8352641,7.106 L58.24688,14.6954614 L57.9423414,15 L57.3332641,14.3909227 L65.2262641,6.497 L59.6348166,0.904657561 L59.3332641,0.603105041 L59.9363692,0 L65.8302641,5.893 L71.7241868,0 Z" id="Combined-Shape"></path>
                    </g>
                </g>
            </g>
        </g>
    </g>
</svg>