<?xml version="1.0" encoding="UTF-8"?>
<svg width="133px" height="28px" viewBox="0 0 133 28" version="1.1" xmlns="http://www.w3.org/2000/svg" xmlns:xlink="http://www.w3.org/1999/xlink">
    <title>swiftline</title>
    <g id="Pages" stroke="none" stroke-width="1" fill="none" fill-rule="evenodd">
        <g id="About" transform="translate(-310, -4711)" fill="#000000" fill-rule="nonzero">
            <g id="Group-20-Copy-2" transform="translate(79, 4456)">
                <g id="Group-7" transform="translate(3, 239.2599)">
                    <g id="logo" transform="translate(228, 15.7401)">
                        <g id="Group" transform="translate(28.9031, 5.278)">
                            <path d="M7.48407997,18.9 C6.15761057,18.9 4.97076953,18.676 3.90959401,18.2 C1.81045716,17.3221748 0.325797454,15.4029294 0,13.146 L3.14163805,12.67 C3.39296909,13.748 3.95148252,14.588 4.77528983,15.176 C6.17264634,16.0816979 7.90758508,16.2933353 9.48076548,15.75 C10.0672046,15.554 10.5279782,15.26 10.8770491,14.868 C11.2400828,14.476 11.4076368,14 11.4076368,13.454 C11.4267232,12.9799659 11.2499133,12.5190365 10.9189376,12.18 C10.7347213,11.9941865 10.5227318,11.8383138 10.29061,11.718 C10.0392789,11.578 9.73209653,11.452 9.39698847,11.354 L4.73340132,9.968 C4.31451625,9.856 3.89563118,9.688 3.42089476,9.492 C2.94646963,9.28651679 2.50434684,9.01299153 2.1083882,8.68 C1.68950313,8.33 1.35439507,7.882 1.08910119,7.35 C0.802451396,6.71779032 0.663939845,6.02817819 0.684178952,5.334 C0.684178952,4.158 0.991361339,3.178 1.57780044,2.394 C2.17820238,1.596 2.97408402,0.994 3.96544536,0.602 C5.03414633,0.19095305 6.17211693,-0.00872185966 7.31652594,0.014 C8.54525549,0.028 9.64831951,0.252 10.625718,0.672 C12.59572,1.4866588 14.0271635,3.23735254 14.4375722,5.334 L11.1842314,5.894 C10.9681832,4.69263349 10.150368,3.68748208 9.0199919,3.234 C7.92952444,2.76276132 6.70056291,2.7276978 5.5851343,3.136 C5.11096942,3.30082204 4.68430058,3.57961598 4.34244192,3.948 C4.03525953,4.298 3.86770551,4.704 3.86770551,5.18 C3.86770551,5.628 4.00733386,5.992 4.28659058,6.272 C4.53792162,6.552 4.87302968,6.776 5.26398908,6.944 C5.68287415,7.098 6.07383356,7.238 6.49271863,7.35 L9.73209653,8.246 C10.1789073,8.386 10.6676065,8.526 11.22612,8.736 C11.7846334,8.932 12.3012583,9.212 12.8178832,9.576 C13.3205453,9.94 13.7533932,10.416 14.0745384,11.004 C14.4096465,11.592 14.5772005,12.334 14.5772005,13.244 C14.6057358,14.9278921 13.8004225,16.5165895 12.4269238,17.486 C11.7567077,17.962 11.0027146,18.312 10.1509816,18.55 C9.29924862,18.788 8.40562713,18.9 7.48407997,18.9 L7.48407997,18.9 Z M18.6264229,18.522 L14.4794607,4.886 L17.4395819,4.914 L20.0925207,13.636 L22.7733851,4.914 L25.3285841,4.914 L28.0094485,13.636 L30.6623873,4.914 L33.6364713,4.914 L29.4895091,18.522 L27.1297899,18.522 L24.057966,9.156 L20.9861421,18.522 L18.6264229,18.522 Z M34.5719813,2.842 L34.5719813,0.084 L37.6019167,0.084 L37.6019167,2.842 L34.5719813,2.842 Z M34.5719813,18.522 L34.5719813,4.914 L37.6019167,4.914 L37.6019167,18.522 L34.5719813,18.522 Z M40.980923,18.522 L40.980923,4.704 L41.0228115,3.556 C41.0367743,3.136 41.1065885,2.73 41.232254,2.324 C41.3579195,1.904 41.5673621,1.526 41.8745444,1.204 C42.251541,0.77 42.6704261,0.476 43.1311997,0.308 C43.5780104,0.14 44.0108583,0.056 44.4437062,0.028 L45.6026216,0 L47.2921247,0 L47.2921247,2.464 L45.7282871,2.464 C45.141848,2.464 44.7090001,2.604 44.4297434,2.912 C44.1504867,3.192 44.0108583,3.57 44.0108583,4.032 L44.0108583,18.522 L40.980923,18.522 Z M38.7887577,7.294 L38.7887577,4.914 L47.3060876,4.914 L47.3060876,7.294 L38.7887577,7.294 Z" id="Shape"></path>
                            <path d="M55.683789,18.522 C54.7901675,18.69 53.9105089,18.774 53.0587759,18.746 C52.2674109,18.7375986 51.4851186,18.5759699 50.754908,18.27 C50.0966999,17.9886923 49.5545865,17.4896087 49.2189961,16.856 C48.9120669,16.2969849 48.7399198,15.6736882 48.716334,15.036 C48.6884083,14.434 48.6884083,13.734 48.6884083,12.964 L48.6884083,1.134 L51.7043808,1.134 L51.7043808,12.796 C51.7043808,13.328 51.7043808,13.804 51.7323065,14.224 C51.7323065,14.644 51.8300463,14.98 51.9836375,15.232 C52.2908199,15.736 52.7655563,16.016 53.4357725,16.072 C54.0920257,16.128 54.832056,16.1 55.683789,15.988 L55.683789,18.522 L55.683789,18.522 Z M46.2309492,7.294 L46.2309492,4.914 L55.683789,4.914 L55.683789,7.294 L46.2309492,7.294 Z M60.7522984,18.522 L60.7522984,0.378 L63.7822338,0.378 L63.7822338,15.68 L71.7689758,15.68 L71.7689758,18.522 L60.7522984,18.522 Z M72.5927831,2.842 L72.5927831,0.084 L75.6087556,0.084 L75.6087556,2.842 L72.606746,2.842 L72.5927831,2.842 Z M72.5927831,18.522 L72.5927831,4.914 L75.6087556,4.914 L75.6087556,18.522 L72.606746,18.522 L72.5927831,18.522 Z M87.1979093,18.522 L87.1979093,11.97 C87.1979093,11.55 87.1699837,11.074 87.1141323,10.556 C87.050427,10.0338872 86.9092385,9.52425564 86.6952472,9.044 C86.4908955,8.56915026 86.162955,8.15813353 85.7457744,7.854 C85.3268893,7.546 84.7683759,7.392 84.0283456,7.392 C83.651349,7.392 83.2743525,7.448 82.8973559,7.574 C82.5203593,7.714 82.1712885,7.91 81.8780689,8.218 C81.5708865,8.526 81.3195555,8.946 81.1380386,9.478 C80.9565217,10.024 80.8587819,10.696 80.8587819,11.522 L79.0575761,10.752 C79.0575761,9.604 79.2809814,8.554 79.741755,7.616 C80.6613178,5.600495 82.730786,4.36778053 84.9359299,4.522 C85.9272913,4.522 86.7510986,4.676 87.4073519,5.012 C88.0636051,5.348 88.5941929,5.768 88.9711895,6.3 C89.3621489,6.818 89.6414056,7.378 89.8229224,7.966 C90.1422057,8.91225578 90.2934351,9.90734071 90.2697332,10.906 L90.2697332,18.522 L87.1979093,18.522 L87.1979093,18.522 Z M77.786958,18.522 L77.786958,4.914 L80.4957482,4.914 L80.4957482,9.128 L80.8587819,9.128 L80.8587819,18.522 L77.786958,18.522 Z M97.9213672,18.9 C96.6579715,18.928362 95.4098049,18.6191138 94.3049927,18.004 C93.280854,17.4208985 92.4394226,16.5626814 91.8754593,15.526 C91.2748918,14.4036679 90.9719892,13.1454454 90.9958007,11.872 C90.9958007,10.374 91.2750574,9.086 91.8614965,7.994 C92.9636505,5.77283924 95.2679968,4.41179656 97.7398503,4.522 C99.1361339,4.522 100.336938,4.858 101.314336,5.502 C102.321226,6.18367114 103.092109,7.16206969 103.520464,8.302 C103.995201,9.506 104.176718,10.92 104.065015,12.558 L101.049042,12.558 L101.049042,11.438 C101.049042,9.968 100.783749,8.876 100.267124,8.204 C99.7644615,7.504 98.954617,7.182 97.8655158,7.182 C96.6228235,7.182 95.7012763,7.56 95.1008744,8.33 C94.4310637,9.32149277 94.1115593,10.5092698 94.19329,11.704 C94.19329,13.09 94.5004724,14.154 95.1008744,14.91 C95.7012763,15.666 96.580935,16.03 97.7398503,16.03 C98.4798806,16.03 99.1361339,15.876 99.6667217,15.54 C100.211272,15.204 100.616194,14.728 100.923377,14.098 L103.911424,15.008 C103.427022,16.1917505 102.581475,17.1914649 101.495853,17.864 C100.420715,18.55 99.2199109,18.886 97.9074044,18.886 L97.9213672,18.9 Z M93.2438172,12.572 L93.2438172,10.262 L102.598917,10.262 L102.598917,12.558 L93.2438172,12.558 L93.2438172,12.572 Z" id="Shape"></path>
                        </g>
                        <g id="Group">
                            <path d="M12.2035185,0 L25.7893576,0 L16.7554029,9.03 C14.6702097,11.1110633 11.8503661,12.283256 8.90828922,12.292 L0,12.32 L12.2035185,0 Z M12.2035185,28 L25.7893576,28 L16.7554029,18.97 C14.6702097,16.8889367 11.8503661,15.716744 8.90828922,15.708 L0,15.68 L12.2035185,28 Z" id="Shape"></path>
                        </g>
                    </g>
                </g>
            </g>
        </g>
    </g>
</svg>