<?xml version="1.0" encoding="UTF-8"?>
<svg width="133px" height="25px" viewBox="0 0 133 25" version="1.1" xmlns="http://www.w3.org/2000/svg" xmlns:xlink="http://www.w3.org/1999/xlink">
    <title>fabrik</title>
    <g id="Pages" stroke="none" stroke-width="1" fill="none" fill-rule="evenodd">
        <g id="About" transform="translate(-539, -4713)" fill="#000000" fill-rule="nonzero">
            <g id="Group-20-Copy-2" transform="translate(79, 4456)">
                <g id="Group-7" transform="translate(3, 239.2599)">
                    <g id="logo-(1)" transform="translate(457, 18.5401)">
                        <path d="M33.0509292,23.8 L33.0509292,0 L47.3943706,0 L47.3943706,3.97699653 L37.0323459,3.97699653 L37.0323459,9.90633681 L45.4088329,9.90633681 L45.4088329,13.8936632 L37.0323459,13.8936632 L37.0323459,23.8 L33.0509292,23.8 Z M46.318871,23.8 L53.8266853,0 L59.6695436,0 L67.1876992,23.8 L63.0718451,23.8 L56.2775834,2.44817708 L57.1565975,2.44817708 L50.4347251,23.8 L46.3292123,23.8 L46.318871,23.8 Z M50.5071145,18.6350694 L50.5071145,14.9163194 L63.0201384,14.9163194 L63.0201384,18.6350694 L50.5071145,18.6350694 Z M68.0977373,23.8 L68.0977373,0 L77.5393826,0 C79.152632,0 80.4763238,0.320225694 81.510458,0.971006944 C82.5445922,1.61145833 83.3098515,2.43784722 83.8165772,3.45017361 C84.3129617,4.44184028 84.5611539,5.47482639 84.5611539,6.54913194 C84.5993528,7.73016335 84.2745492,8.89455333 83.6304331,9.88567708 C83.0264229,10.7794326 82.1252195,11.430799 81.086463,11.7243924 L81.086463,10.9083333 C82.4499097,11.1676243 83.6670995,11.9266022 84.4991058,13.0362847 C85.2801564,14.1062627 85.6937179,15.3999253 85.6780188,16.7240451 C85.7053504,18.0075454 85.4252508,19.27899 84.8610528,20.4324653 C84.3284026,21.4839906 83.487991,22.3486895 82.4515201,22.9116319 C81.3863619,23.500434 80.0730114,23.8 78.5011274,23.8 L68.0977373,23.8 L68.0977373,23.8 Z M72.1308607,20.0399306 L78.004743,20.0399306 C78.7079543,20.0399306 79.3284348,19.9056424 79.8661846,19.6267361 C81.0093271,19.0667728 81.70881,17.8805969 81.6448954,16.6104167 C81.6448954,15.9699653 81.5001166,15.3914931 81.2312417,14.8853299 C80.9520255,14.3791667 80.5487132,13.9763021 80.0213047,13.6767361 C79.4365503,13.3657671 78.7806593,13.2126584 78.1184978,13.2325521 L72.1308607,13.2325521 L72.1308607,20.0502604 L72.1308607,20.0399306 Z M72.1308607,9.50347222 L77.4876759,9.50347222 C78.0564497,9.50347222 78.5735168,9.40017361 79.0285359,9.17291667 C79.4835549,8.96631944 79.8455019,8.63576389 80.1143768,8.20190972 C80.3729103,7.77838542 80.5073478,7.24123264 80.5073478,6.60078125 C80.5073478,5.77439236 80.2384729,5.09262153 79.7110645,4.54513889 C79.1178476,3.97183566 78.3117787,3.67223605 77.4876759,3.71875 L72.1308607,3.71875 L72.1308607,9.50347222 Z M86.9086385,23.8 L86.9086385,0 L96.7535961,0 C96.9811057,0 97.2810046,0 97.6532929,0.0206597222 C98.0152399,0.0413194444 98.3565042,0.0723090278 98.6667444,0.123958333 C100.042143,0.340885417 101.179691,0.805729167 102.079387,1.50815972 C102.968892,2.20461671 103.657592,3.12424013 104.075266,4.17326389 C104.509603,5.24756944 104.726771,6.44583333 104.726771,7.74739583 C104.777509,9.5301694 104.263606,11.2834538 103.2583,12.7573785 C102.275873,14.1415799 100.776378,15.0092882 98.7391338,15.3398437 L97.0431537,15.4947917 L90.8900552,15.4947917 L90.8900552,23.8 L86.9086385,23.8 L86.9086385,23.8 Z M100.590234,23.8 L95.8952648,14.1105903 L99.9490708,13.2222222 L105.119742,23.8 L100.590234,23.8 Z M90.8900552,11.7657118 L96.5881347,11.7657118 C96.8156442,11.7657118 97.0638364,11.7553819 97.3327113,11.7243924 C97.6119275,11.7037326 97.8601197,11.6624132 98.0979706,11.600434 C98.6908055,11.4679904 99.2307827,11.162343 99.6491719,10.7223958 C100.031802,10.3092014 100.300676,9.83402778 100.466138,9.30720486 C100.77263,8.28986588 100.77263,7.20492579 100.466138,6.18758681 C100.308597,5.65761613 100.032808,5.17022425 99.6595133,4.76206597 C99.2768836,4.34887153 98.7598165,4.05963542 98.108312,3.89435764 C97.8601197,3.82204861 97.6119275,3.79105903 97.3327113,3.76006944 L96.5881347,3.72907986 L90.8900552,3.72907986 L90.8900552,11.7657118 L90.8900552,11.7657118 Z M107.022549,23.8 L107.022549,0 L111.003965,0 L111.003965,23.8 L107.022549,23.8 Z M113.899541,23.8 L113.899541,0 L117.880958,0 L117.880958,11.0426215 L127.394993,0 L132.296789,0 L122.048519,11.6727431 L133,23.8 L127.932742,23.8 L117.880958,12.6953993 L117.880958,23.8 L113.899541,23.8 Z M22.7509525,0.0413194444 C25.6066352,0.0413194444 27.9216235,2.35373762 27.9216235,5.20625 C27.9216235,8.05876238 25.6066352,10.3711806 22.7509525,10.3711806 L5.17067102,10.3711806 C2.31498827,10.3711806 0,8.05876238 0,5.20625 C0,2.35373762 2.31498827,0.0413194444 5.17067102,0.0413194444 L22.7509525,0.0413194444 Z M22.7509525,3.14027778 L5.17067102,3.14027778 C4.02839792,3.14027778 3.10240261,4.06524505 3.10240261,5.20625 C3.10240261,6.34725495 4.02839792,7.27222222 5.17067102,7.27222222 L22.7509525,7.27222222 C23.8932256,7.27222222 24.8192209,6.34725495 24.8192209,5.20625 C24.8192209,4.06524505 23.8932256,3.14027778 22.7509525,3.14027778 Z M22.2338854,12.4371528 C25.3751364,12.4371528 27.9216234,14.9808128 27.9216234,18.1185764 C27.9216234,21.25634 25.3751364,23.8 22.2338854,23.8 L5.68773812,23.8 C2.54648714,23.8 1.19860488e-07,21.25634 1.19860488e-07,18.1185764 C1.19860488e-07,14.9808128 2.54648714,12.4371528 5.68773812,12.4371528 L22.2338854,12.4371528 Z M22.2338854,15.5361111 L5.68773812,15.5361111 C4.25989675,15.5361111 3.10240261,16.6923202 3.10240261,18.1185764 C3.10240261,19.5448326 4.25989675,20.7010417 5.68773812,20.7010417 L22.2338854,20.7010417 C23.1575368,20.7010417 24.011026,20.2088266 24.4728517,19.4098091 C24.9346774,18.6107915 24.9346774,17.6263613 24.4728517,16.8273437 C24.011026,16.0283262 23.1575368,15.5361111 22.2338854,15.5361111 L22.2338854,15.5361111 Z" id="Shape"></path>
                    </g>
                </g>
            </g>
        </g>
    </g>
</svg>