<?xml version="1.0" encoding="UTF-8"?>
<svg width="129px" height="26px" viewBox="0 0 129 26" version="1.1" xmlns="http://www.w3.org/2000/svg" xmlns:xlink="http://www.w3.org/1999/xlink">
    <title>eagle</title>
    <defs>
        <path d="M4.24776276,0.0561960753 L24.1674739,3.61108755 C25.8905678,3.9185926 27.1453367,5.4171133 27.1453367,7.16743096 L27.1453367,13.2992614 C27.1453367,15.2944074 25.5279513,16.9117927 23.5328053,16.9117927 L16.519,16.911 L17.6173235,16.1790237 C16.9395466,14.9840135 16.2753095,13.7835367 15.5890124,12.595594 L14.8940434,11.412496 C14.1931569,10.2359275 13.158942,9.71298761 11.8298386,9.71298761 L6.80849637,9.71298761 C8.03362918,12.1688614 8.63530429,12.1932962 9.56811122,12.1932962 L11.2861893,12.1932962 C11.7356609,12.1859843 12.3010928,12.1810788 12.661146,12.1786723 C13.2459808,12.1749701 13.5891022,12.2886286 13.8766688,12.6357126 C14.0191708,12.809162 14.154534,12.9924224 14.287426,13.1732763 C14.6209375,13.6376284 14.5122076,14.0700488 14.2125599,14.3071766 C13.0622932,15.211261 11.9071759,16.1105325 10.7545296,17.014802 L10.886,16.911 L9.36030469,16.9117927 C8.08499944,16.9117927 6.90418432,16.2393735 6.25344994,15.1425835 L0.506239428,5.45586156 C-0.51179924,3.73999306 0.0539036096,1.52372341 1.76977211,0.50568474 C2.51511204,0.0634685267 3.39458971,-0.0960620366 4.24776276,0.0561960753 Z M11.9772828,5.96670173 L4.5973815,5.96670173 C5.88495046,8.54712377 6.53751538,8.65416782 7.49749531,8.65833813 L12.4364559,8.65850013 C13.7654678,8.65850013 14.7973031,9.1802368 15.5004778,10.3568978 C16.5323131,12.0809335 17.4916618,13.8477299 18.4897249,15.5925906 C19.5818742,14.8593641 20.6717353,14.1215098 21.7688177,13.3956877 C22.1119299,13.1683708 22.7015423,13.3638485 23.5376638,13.9650906 C22.3487652,12.0919476 21.7325561,11.4784882 20.8046274,11.4784882 L18.3704942,11.4784437 C17.9300273,11.4747312 17.8113793,11.4280718 17.4529474,10.9567516 C17.1195275,10.5206289 16.6386633,9.85219143 16.1094748,8.89183314 C15.2081519,7.26433312 13.992629,5.96670173 11.9772828,5.96670173 Z" id="path-1"></path>
    </defs>
    <g id="Pages" stroke="none" stroke-width="1" fill="none" fill-rule="evenodd">
        <g id="About" transform="translate(-85, -4713)">
            <g id="Group-20-Copy-2" transform="translate(79, 4456)">
                <g id="Group-7" transform="translate(6.5199, 240.0883)">
                    <g id="eagle" transform="translate(-0, 17.7839)">
                        <g id="Group-65" transform="translate(0, 0)">
                            <g id="Combined-Shape" transform="translate(-0, 0.1146)">
                                <use fill-opacity="0.102245411" fill="#000000" xlink:href="#path-1"></use>
                                <use fill="#F9F7F5" xlink:href="#path-1"></use>
                                <use fill="#000000" xlink:href="#path-1"></use>
                            </g>
                            <g id="Eagle-Elite" transform="translate(41.0135, 0)" fill="#000000" fill-rule="nonzero">
                                <polygon id="Path" points="0 20.2301755 0 0 7.34608248 0 7.34608248 2.18738773 2.45290878 2.18738773 2.45290878 8.92656495 7.09320529 8.92656495 7.09320529 11.1139527 2.45290878 11.1139527 2.45290878 18.0427878 7.34608248 18.0427878 7.34608248 20.2301755"></polygon>
                                <path d="M12.1507492,20.3945457 C11.1476696,20.3945457 10.3827161,20.1437758 9.85588863,19.642236 C9.32906115,19.1406963 9.0235012,18.3462404 8.93920881,17.2588685 C8.93077957,17.0565667 8.92445764,16.8500504 8.92024302,16.6393194 C8.9160284,16.4285884 8.91813571,16.2262866 8.92656495,16.0324141 C8.96871115,15.4086504 9.09304243,14.8565351 9.29955881,14.3760685 C9.50607518,13.8956018 9.84324478,13.461496 10.3110676,13.0737509 C10.7788904,12.6860059 11.4089761,12.3151193 12.2013246,11.9610913 C12.6312158,11.775648 13.0716436,11.598634 13.5226079,11.4300492 C13.9735723,11.2614644 14.4350732,11.1013088 14.9071106,10.9495825 L14.9071106,8.23115266 C14.9071106,7.70011056 14.7891012,7.31658015 14.5530825,7.08056143 C14.3170638,6.84454272 13.9124603,6.72653336 13.339272,6.72653336 C12.8419468,6.72653336 12.4520945,6.82768424 12.169715,7.02998599 C11.8873354,7.23228775 11.7335018,7.58631582 11.7082141,8.09207021 C11.6913556,8.3028012 11.6808191,8.57042957 11.6766044,8.8949553 C11.6723898,9.21948103 11.6744971,9.5313629 11.6829264,9.83060092 C11.6913556,10.1298389 11.6997848,10.3468919 11.7082141,10.4817597 L9.30588074,10.4817597 C9.2974515,10.1783071 9.28902226,9.84113747 9.28059302,9.47025091 C9.27216378,9.09936436 9.27216378,8.74112167 9.28059302,8.39552284 C9.31430998,7.57788658 9.4681436,6.90776202 9.7420939,6.38514915 C10.0160442,5.86253628 10.45015,5.47689856 11.0444114,5.22823599 C11.6386729,4.97957341 12.4331287,4.85524212 13.427779,4.85524212 C14.4308585,4.85524212 15.2168851,4.98800265 15.7858588,5.2535237 C16.3548325,5.51904476 16.7552214,5.93839944 16.9870255,6.51158774 C17.2188296,7.08477605 17.3347316,7.83076377 17.3347316,8.74955091 L17.3220878,20.2301755 L14.869179,20.2301755 L14.869179,18.7634878 L14.5151509,18.7634878 C14.270703,19.2945299 13.9862161,19.6991334 13.6616904,19.9772983 C13.3371647,20.2554632 12.8335176,20.3945457 12.1507492,20.3945457 Z M12.9473123,18.5864738 C13.4024913,18.5864738 13.7944509,18.472679 14.1231913,18.2450895 C14.4519316,18.0175001 14.7048088,17.6887597 14.8818229,17.2588685 L14.9071106,12.8335176 C14.569941,12.9346685 14.2243422,13.0547851 13.8703141,13.1938676 C13.516286,13.3329501 13.1411848,13.516286 12.7450106,13.7438755 C12.19711,14.0388989 11.8388673,14.3760685 11.6702825,14.7553843 C11.5016977,15.1347001 11.4089761,15.5603767 11.3921176,16.0324141 C11.3836883,16.2600036 11.381581,16.4496615 11.3857957,16.6013878 C11.3900103,16.7531141 11.3963322,16.9174843 11.4047614,17.0944983 C11.4469076,17.5581065 11.6007413,17.9226711 11.8662623,18.1881922 C12.1317834,18.4537132 12.4921334,18.5864738 12.9473123,18.5864738 Z" id="Shape"></path>
                                <path d="M23.8463194,24.7061019 C22.5735042,24.7061019 21.5704246,24.5206586 20.8370808,24.149772 C20.1037369,23.7788855 19.6907042,23.2309849 19.5979825,22.5060703 C19.5811241,22.3880609 19.5684802,22.2679442 19.560051,22.1457203 C19.5516217,22.0234963 19.5516217,21.9118089 19.560051,21.810658 C19.5937679,21.355479 19.7749966,20.9866998 20.1037369,20.7043203 C20.4324773,20.4219407 20.8160077,20.247034 21.2543282,20.1796001 L21.2543282,19.8002843 C20.7738615,19.6738457 20.4282627,19.4947243 20.2175317,19.2629203 C20.0068007,19.0311162 19.8803621,18.7508439 19.8382159,18.4221036 C19.8297866,18.3462404 19.825572,18.2577334 19.825572,18.1565825 C19.825572,18.0554316 19.8297866,17.9542808 19.8382159,17.8531299 C19.8719328,17.5075311 20.0299811,17.214615 20.3123606,16.9743816 C20.5947401,16.7341483 20.9508755,16.5845293 21.3807667,16.5255246 L21.3807667,16.133565 C20.7991492,15.8722585 20.3734726,15.4802989 20.1037369,14.957686 C19.8340012,14.4350732 19.6738457,13.7523047 19.6232703,12.9093808 C19.614841,12.6227866 19.6064118,12.2814024 19.5979825,11.8852281 C19.5895533,11.4890538 19.5853387,11.0802357 19.5853387,10.6587737 C19.5853387,10.2373117 19.5895533,9.83692285 19.5979825,9.45760705 C19.6064118,9.07829126 19.614841,8.75798015 19.6232703,8.49667372 C19.6907042,7.62003278 19.8719328,6.91408394 20.1669562,6.37882722 C20.4619796,5.84357049 20.9045147,5.45582546 21.4945615,5.21559213 C22.0846083,4.97535879 22.8558837,4.85524212 23.8083878,4.85524212 C24.7693211,4.85524212 25.5448112,4.9774661 26.134858,5.22191406 C26.7249048,5.46636201 27.1632253,5.8667509 27.4498194,6.42308073 L27.8417791,6.42308073 C27.8923545,5.96790178 28.0714758,5.62651757 28.3791431,5.39892809 C28.6868103,5.17133862 29.106165,5.05754388 29.6372071,5.05754388 L29.6372071,6.95412283 L29.3337545,6.95412283 C28.9122925,6.95412283 28.5793375,7.08477605 28.3348896,7.34608248 C28.0904416,7.60738892 27.9682177,8.02885091 27.9682177,8.61046845 L27.9682177,9.2553053 C27.9682177,9.32273922 27.970325,9.50396787 27.9745396,9.79899127 C27.9787542,10.0940147 27.9808615,10.4375062 27.9808615,10.8294658 C27.9808615,11.2214255 27.9787542,11.6070632 27.9745396,11.986379 C27.970325,12.3656948 27.9597884,12.673362 27.9429299,12.9093808 C27.8923545,13.7944509 27.7216624,14.5025071 27.4308536,15.0335492 C27.1400448,15.5645913 26.7017244,15.9481217 26.1158922,16.1841404 C25.53006,16.4201591 24.7566773,16.5381685 23.795744,16.5381685 C23.0876878,16.5297392 22.5671823,16.5971732 22.2342273,16.7404702 C21.9012723,16.8837673 21.7347948,17.1113568 21.7347948,17.4232387 L21.7347948,17.5496773 C21.7347948,17.751979 21.804336,17.9121346 21.9434185,18.0301439 C22.082501,18.1481533 22.3079831,18.234553 22.619865,18.2893431 C22.9317469,18.3441331 23.3616381,18.3799574 23.9095387,18.3968159 C25.4015141,18.4389621 26.5078519,18.6707662 27.2285519,19.0922281 C27.9492519,19.5136901 28.3643919,20.1838147 28.473972,21.1026018 C28.4908305,21.2290404 28.4992598,21.3681229 28.4992598,21.5198492 C28.4992598,21.6715755 28.4908305,21.8190872 28.473972,21.9623843 C28.3981089,22.6451527 28.1684121,23.1888387 27.7848817,23.5934422 C27.4013513,23.9980457 26.8766311,24.2846399 26.2107212,24.4532247 C25.5448112,24.6218095 24.7566773,24.7061019 23.8463194,24.7061019 Z M23.9095387,22.9738931 C24.4237223,22.9738931 24.8599355,22.9380688 25.2181782,22.8664203 C25.5764209,22.7947717 25.8588004,22.6725477 26.0653168,22.4997483 C26.2718331,22.3269489 26.400379,22.0972521 26.4509545,21.810658 C26.4846714,21.7010779 26.4994226,21.5957124 26.495208,21.4945615 C26.4909934,21.3934106 26.4762422,21.2880451 26.4509545,21.178465 C26.400379,20.9255878 26.2823697,20.723286 26.0969264,20.5715597 C25.9114831,20.4198334 25.6417475,20.3102533 25.2877194,20.2428194 C24.9336913,20.1753855 24.4742978,20.1416685 23.9095387,20.1416685 C23.2267703,20.1332393 22.6830843,20.1943512 22.2784808,20.3250045 C21.8738773,20.4556577 21.6420732,20.7527884 21.5830685,21.2163966 C21.56621,21.3596937 21.5577808,21.4734884 21.5577808,21.5577808 C21.5577808,21.6420732 21.56621,21.7347948 21.5830685,21.8359457 C21.6252147,22.1309691 21.7432241,22.3606659 21.9370966,22.5250361 C22.1309691,22.6894062 22.3964901,22.8053083 22.7336597,22.8727422 C23.0708293,22.9401761 23.462789,22.9738931 23.9095387,22.9738931 Z M23.8083878,14.6668772 C24.4068638,14.6668772 24.8367551,14.5488679 25.0980615,14.3128492 C25.3593679,14.0768305 25.5068796,13.7017293 25.5405966,13.1875457 C25.5574551,12.9262392 25.5722062,12.5701038 25.5848501,12.1191395 C25.597494,11.6681752 25.6038159,11.1877085 25.6038159,10.6777395 C25.6038159,10.1677705 25.597494,9.68941115 25.5848501,9.24266144 C25.5722062,8.79591173 25.5574551,8.44188366 25.5405966,8.18057722 C25.5153089,7.67482284 25.3720118,7.3060436 25.1107054,7.0742395 C24.8493989,6.84243541 24.4152931,6.72653336 23.8083878,6.72653336 C23.2099118,6.72653336 22.769484,6.84454272 22.4871045,7.08056143 C22.2047249,7.31658015 22.0508913,7.7085398 22.0256036,8.25644038 C22.0171744,8.4924591 22.0087451,8.82962869 22.0003159,9.26794916 C21.9918866,9.70626963 21.9855647,10.1761997 21.9813501,10.6777395 C21.9771355,11.1792793 21.9792428,11.653424 21.987672,12.1001737 C21.9961013,12.5469234 22.0087451,12.8967369 22.0256036,13.1496141 C22.0593206,13.672227 22.2110469,14.0557574 22.4807825,14.3002053 C22.7505182,14.5446533 23.1930533,14.6668772 23.8083878,14.6668772 Z" id="Shape"></path>
                                <polygon id="Path" points="31.0406756 20.2301755 31.0406756 0 33.4935843 0 33.4935843 20.2301755"></polygon>
                                <path d="M40.1821861,20.4324773 C38.7070692,20.4324773 37.6534142,20.1479904 37.0212212,19.5790167 C36.3890282,19.0100431 36.0392148,18.0933632 35.9717808,16.8289773 C35.9549224,16.2726474 35.9401712,15.6341325 35.9275273,14.9134325 C35.9148835,14.1927325 35.9085615,13.4467448 35.9085615,12.6754693 C35.9085615,11.9041939 35.9148835,11.1539916 35.9275273,10.4248623 C35.9401712,9.69573308 35.9549224,9.05300354 35.9717808,8.49667372 C36.047644,7.18171231 36.4122086,6.24606669 37.0654747,5.68973686 C37.7187408,5.13340704 38.7450007,4.85524212 40.1442545,4.85524212 C41.5603668,4.85524212 42.5803048,5.13551435 43.2040686,5.69605879 C43.8278323,6.25660324 44.1692165,7.15642459 44.2282212,8.39552284 C44.2366505,8.58939535 44.2429724,8.94763805 44.247187,9.47025091 C44.2514016,9.99286378 44.2514016,10.5808033 44.247187,11.2340693 C44.2429724,11.8873354 44.2282212,12.5089919 44.2029335,13.0990386 L38.3994019,13.0990386 C38.3994019,13.7480901 38.4057238,14.4034635 38.4183677,15.0651588 C38.4310116,15.7268542 38.4457627,16.4033006 38.4626212,17.0944983 C38.4794797,17.6339697 38.6185621,18.0111781 38.8798686,18.2261238 C39.141175,18.4410694 39.562637,18.5485422 40.1442545,18.5485422 C40.7258721,18.5485422 41.1367975,18.4410694 41.3770309,18.2261238 C41.6172642,18.0111781 41.7500247,17.629755 41.7753124,17.0818545 C41.7921709,16.8289773 41.8006002,16.5002369 41.8006002,16.0956334 C41.8006002,15.6910299 41.7879563,15.2527094 41.7626686,14.780672 L44.2029335,14.780672 C44.219792,15.0166907 44.2324358,15.3496457 44.2408651,15.7795369 C44.2492943,16.2094281 44.2450797,16.5592416 44.2282212,16.8289773 C44.1692165,18.1186509 43.832047,19.0416527 43.2167124,19.5979825 C42.6013779,20.1543124 41.5898692,20.4324773 40.1821861,20.4324773 Z M38.4120458,11.2909667 L41.8006002,11.2909667 C41.8006002,10.8610755 41.8027075,10.4311843 41.8069221,10.001293 C41.8111367,9.57140179 41.8090294,9.18997869 41.8006002,8.85702372 C41.7921709,8.52406875 41.7837417,8.29015734 41.7753124,8.15528951 C41.7415955,7.6242474 41.5982984,7.25336085 41.3454212,7.04262985 C41.092544,6.83189886 40.6921551,6.72653336 40.1442545,6.72653336 C39.52892,6.72653336 39.0990288,6.84243541 38.8545809,7.0742395 C38.6101329,7.3060436 38.4794797,7.6663936 38.4626212,8.15528951 C38.454192,8.66947313 38.4436554,9.18997869 38.4310116,9.71680618 C38.4183677,10.2436337 38.4120458,10.7683538 38.4120458,11.2909667 Z" id="Shape"></path>
                                <polygon id="Path" points="51.9789072 20.2301755 51.9789072 0 59.3249897 0 59.3249897 2.18738773 54.431816 2.18738773 54.431816 8.92656495 59.0721125 8.92656495 59.0721125 11.1139527 54.431816 11.1139527 54.431816 18.0427878 59.3249897 18.0427878 59.3249897 20.2301755"></polygon>
                                <polygon id="Path" points="61.3859388 20.2301755 61.3859388 0 63.8388476 0 63.8388476 20.2301755"></polygon>
                                <path d="M66.3044003,2.22531931 L66.3044003,0 L69.2377757,0 L69.2377757,2.22531931 L66.3044003,2.22531931 Z M66.5446336,20.2301755 L66.5446336,5.05754388 L68.9975424,5.05754388 L68.9975424,20.2301755 L66.5446336,20.2301755 Z" id="Shape"></path>
                                <path d="M76.2171863,20.4324773 C74.6914939,20.4324773 73.6146585,20.1564197 72.9866801,19.6043045 C72.3587017,19.0521893 72.0404979,18.1144363 72.0320687,16.7910457 L72.0194248,6.94147897 L70.742395,6.94147897 L70.742395,5.05754388 L72.0826441,5.05754388 L72.0826441,0.758631582 L74.5734845,0.758631582 L74.5734845,5.05754388 L77.2539828,5.05754388 L77.2539828,6.94147897 L74.4976213,6.94147897 L74.5229091,17.0818545 C74.5229091,17.663472 74.6409184,18.0554316 74.8769371,18.2577334 C75.1129558,18.4600352 75.5681348,18.561186 76.242474,18.561186 C76.4953512,18.561186 76.7166187,18.5548641 76.9062766,18.5422202 C77.0959345,18.5295764 77.3129874,18.5190398 77.5574354,18.5106106 L77.5574354,20.3060387 C77.3551336,20.3397556 77.1444026,20.369258 76.9252424,20.3945457 C76.7060822,20.4198334 76.4700635,20.4324773 76.2171863,20.4324773 Z" id="Path"></path>
                                <path d="M83.1460214,20.4324773 C81.6709044,20.4324773 80.6172494,20.1479904 79.9850565,19.5790167 C79.3528635,19.0100431 79.00305,18.0933632 78.9356161,16.8289773 C78.9187576,16.2726474 78.9040064,15.6341325 78.8913626,14.9134325 C78.8787187,14.1927325 78.8723968,13.4467448 78.8723968,12.6754693 C78.8723968,11.9041939 78.8787187,11.1539916 78.8913626,10.4248623 C78.9040064,9.69573308 78.9187576,9.05300354 78.9356161,8.49667372 C79.0114793,7.18171231 79.3760439,6.24606669 80.02931,5.68973686 C80.682576,5.13340704 81.708836,4.85524212 83.1080898,4.85524212 C84.5242021,4.85524212 85.5441401,5.13551435 86.1679038,5.69605879 C86.7916676,6.25660324 87.1330518,7.15642459 87.1920565,8.39552284 C87.2004857,8.58939535 87.2068076,8.94763805 87.2110223,9.47025091 C87.2152369,9.99286378 87.2152369,10.5808033 87.2110223,11.2340693 C87.2068076,11.8873354 87.1920565,12.5089919 87.1667688,13.0990386 L81.3632372,13.0990386 C81.3632372,13.7480901 81.3695591,14.4034635 81.3822029,15.0651588 C81.3948468,15.7268542 81.409598,16.4033006 81.4264565,17.0944983 C81.4433149,17.6339697 81.5823974,18.0111781 81.8437038,18.2261238 C82.1050103,18.4410694 82.5264722,18.5485422 83.1080898,18.5485422 C83.6897073,18.5485422 84.1006328,18.4410694 84.3408661,18.2261238 C84.5810995,18.0111781 84.71386,17.629755 84.7391477,17.0818545 C84.7560062,16.8289773 84.7644354,16.5002369 84.7644354,16.0956334 C84.7644354,15.6910299 84.7517916,15.2527094 84.7265038,14.780672 L87.1667688,14.780672 C87.1836272,15.0166907 87.1962711,15.3496457 87.2047003,15.7795369 C87.2131296,16.2094281 87.208915,16.5592416 87.1920565,16.8289773 C87.1330518,18.1186509 86.7958822,19.0416527 86.1805477,19.5979825 C85.5652132,20.1543124 84.5537044,20.4324773 83.1460214,20.4324773 Z M81.375881,11.2909667 L84.7644354,11.2909667 C84.7644354,10.8610755 84.7665427,10.4311843 84.7707573,10.001293 C84.774972,9.57140179 84.7728647,9.18997869 84.7644354,8.85702372 C84.7560062,8.52406875 84.7475769,8.29015734 84.7391477,8.15528951 C84.7054307,7.6242474 84.5621337,7.25336085 84.3092565,7.04262985 C84.0563793,6.83189886 83.6559904,6.72653336 83.1080898,6.72653336 C82.4927553,6.72653336 82.0628641,6.84243541 81.8184161,7.0742395 C81.5739682,7.3060436 81.4433149,7.6663936 81.4264565,8.15528951 C81.4180272,8.66947313 81.4074907,9.18997869 81.3948468,9.71680618 C81.3822029,10.2436337 81.375881,10.7683538 81.375881,11.2909667 Z" id="Shape"></path>
                            </g>
                        </g>
                    </g>
                </g>
            </g>
        </g>
    </g>
</svg>