<?xml version="1.0" encoding="UTF-8"?>
<svg width="112px" height="44px" viewBox="0 0 112 44" version="1.1" xmlns="http://www.w3.org/2000/svg" xmlns:xlink="http://www.w3.org/1999/xlink">
    <title>megapolis</title>
    <g id="Pages" stroke="none" stroke-width="1" fill="none" fill-rule="evenodd">
        <g id="About" transform="translate(-1235, -4696)">
            <g id="Group-20-Copy-2" transform="translate(79, 4456)">
                <g id="Group-7" transform="translate(3, 240.0883)">
                    <g id="logo-(1)" transform="translate(1153.062, 0)">
                        <g id="Megapolis" transform="translate(0, 26.6536)" fill="#000000" fill-rule="nonzero">
                            <polygon id="Path" points="12.312 13.518 12.312 5.418 8.388 13.518 6.138 13.518 2.232 5.418 2.232 13.518 0 13.518 0 1.134 2.664 1.134 7.29 11.034 11.934 1.134 14.544 1.134 14.544 13.518"></polygon>
                            <path d="M21.876,13.518 C20.7,13.518 19.785,13.251 19.131,12.717 C18.477,12.183 18.15,11.31 18.15,10.098 L18.15,7.218 C18.15,6.006 18.477,5.133 19.131,4.599 C19.785,4.065 20.7,3.798 21.876,3.798 L25.098,3.798 C26.274,3.798 27.192,4.065 27.852,4.599 C28.512,5.133 28.842,6.006 28.842,7.218 L28.842,9.504 L20.544,9.504 L20.544,10.098 C20.544,10.602 20.661,10.95 20.895,11.142 C21.129,11.334 21.456,11.43 21.876,11.43 L28.644,11.43 L28.338,13.518 L21.876,13.518 Z M26.43,7.344 C26.43,6.816 26.328,6.441 26.124,6.219 C25.92,5.997 25.578,5.886 25.098,5.886 L21.876,5.886 C21.396,5.886 21.054,5.994 20.85,6.21 C20.646,6.426 20.544,6.762 20.544,7.218 L20.544,7.992 L26.43,7.992 L26.43,7.344 Z" id="Shape"></path>
                            <path d="M40.53,10.872 C40.374,11.184 40.209,11.433 40.035,11.619 C39.861,11.805 39.663,11.949 39.441,12.051 C39.219,12.153 38.964,12.222 38.676,12.258 C38.388,12.294 38.046,12.312 37.65,12.312 L35.976,12.312 C35.268,12.312 34.677,12.24 34.203,12.096 C33.729,11.952 33.348,11.73 33.06,11.43 C32.772,11.13 32.565,10.746 32.439,10.278 C32.313,9.81 32.25,9.258 32.25,8.622 L32.25,7.686 C32.25,7.026 32.313,6.453 32.439,5.967 C32.565,5.481 32.772,5.076 33.06,4.752 C33.348,4.428 33.729,4.188 34.203,4.032 C34.677,3.876 35.268,3.798 35.976,3.798 L38.064,3.798 C38.256,3.798 38.475,3.816 38.721,3.852 C38.967,3.888 39.213,3.957 39.459,4.059 C39.705,4.161 39.933,4.305 40.143,4.491 C40.353,4.677 40.512,4.92 40.62,5.22 L40.62,3.798 L42.942,3.798 L42.942,11.916 C42.942,12.504 42.882,13.065 42.762,13.599 C42.642,14.133 42.414,14.601 42.078,15.003 C41.742,15.405 41.274,15.726 40.674,15.966 C40.074,16.206 39.294,16.326 38.334,16.326 C37.902,16.326 37.47,16.293 37.038,16.227 C36.606,16.161 36.186,16.062 35.778,15.93 L36.066,14.022 C36.45,14.142 36.81,14.226 37.146,14.274 C37.482,14.322 37.848,14.346 38.244,14.346 C38.688,14.346 39.057,14.289 39.351,14.175 C39.645,14.061 39.879,13.899 40.053,13.689 C40.227,13.479 40.35,13.224 40.422,12.924 C40.494,12.624 40.53,12.288 40.53,11.916 L40.53,10.872 Z M40.53,6.822 C40.434,6.486 40.281,6.249 40.071,6.111 C39.861,5.973 39.564,5.904 39.18,5.904 L36.138,5.904 C35.85,5.904 35.613,5.934 35.427,5.994 C35.241,6.054 35.088,6.156 34.968,6.3 C34.848,6.444 34.764,6.639 34.716,6.885 C34.668,7.131 34.644,7.446 34.644,7.83 L34.644,8.478 C34.644,8.898 34.671,9.234 34.725,9.486 C34.779,9.738 34.863,9.933 34.977,10.071 C35.091,10.209 35.241,10.299 35.427,10.341 C35.613,10.383 35.844,10.404 36.12,10.404 L39.018,10.404 C39.474,10.404 39.816,10.344 40.044,10.224 C40.272,10.104 40.434,9.858 40.53,9.486 L40.53,6.822 Z" id="Shape"></path>
                            <path d="M49.482,13.518 C48.342,13.518 47.535,13.326 47.061,12.942 C46.587,12.558 46.35,11.958 46.35,11.142 L46.35,10.08 C46.35,9.252 46.593,8.661 47.079,8.307 C47.565,7.953 48.354,7.776 49.446,7.776 L52.794,7.776 C53.274,7.776 53.64,7.815 53.892,7.893 C54.144,7.971 54.36,8.058 54.54,8.154 L54.54,7.02 C54.54,6.564 54.402,6.264 54.126,6.12 C53.85,5.976 53.382,5.904 52.722,5.904 L47.106,5.904 L47.34,3.798 L53.028,3.798 C53.82,3.798 54.468,3.879 54.972,4.041 C55.476,4.203 55.869,4.422 56.151,4.698 C56.433,4.974 56.628,5.298 56.736,5.67 C56.844,6.042 56.898,6.438 56.898,6.858 L56.898,13.518 C56.55,13.518 56.214,13.407 55.89,13.185 C55.566,12.963 55.356,12.564 55.26,11.988 C55.116,12.432 54.84,12.798 54.432,13.086 C54.024,13.374 53.46,13.518 52.74,13.518 L49.482,13.518 Z M54.54,9.54 C54.336,9.456 54.102,9.39 53.838,9.342 C53.574,9.294 53.22,9.27 52.776,9.27 L49.842,9.27 C49.458,9.27 49.182,9.345 49.014,9.495 C48.846,9.645 48.762,9.93 48.762,10.35 C48.762,10.758 48.846,11.04 49.014,11.196 C49.182,11.352 49.452,11.43 49.824,11.43 L52.758,11.43 C53.19,11.43 53.577,11.358 53.919,11.214 C54.261,11.07 54.468,10.794 54.54,10.386 L54.54,9.54 Z" id="Shape"></path>
                            <path d="M65.256,13.518 C64.68,13.518 64.215,13.413 63.861,13.203 C63.507,12.993 63.198,12.63 62.934,12.114 L62.934,16.308 L60.54,16.308 L60.54,3.798 L62.844,3.798 L62.844,5.202 C63.108,4.686 63.417,4.323 63.771,4.113 C64.125,3.903 64.59,3.798 65.166,3.798 L67.488,3.798 C68.184,3.798 68.772,3.876 69.252,4.032 C69.732,4.188 70.119,4.428 70.413,4.752 C70.707,5.076 70.917,5.481 71.043,5.967 C71.169,6.453 71.232,7.026 71.232,7.686 L71.232,9.63 C71.232,10.29 71.169,10.863 71.043,11.349 C70.917,11.835 70.707,12.24 70.413,12.564 C70.119,12.888 69.732,13.128 69.252,13.284 C68.772,13.44 68.184,13.518 67.488,13.518 L65.256,13.518 Z M68.82,7.758 C68.82,7.11 68.736,6.636 68.568,6.336 C68.4,6.036 68.04,5.886 67.488,5.886 L64.356,5.886 C63.936,5.886 63.615,5.958 63.393,6.102 C63.171,6.246 63.018,6.486 62.934,6.822 L62.934,10.494 C63.018,10.83 63.171,11.07 63.393,11.214 C63.615,11.358 63.936,11.43 64.356,11.43 L67.488,11.43 C68.04,11.43 68.4,11.28 68.568,10.98 C68.736,10.68 68.82,10.206 68.82,9.558 L68.82,7.758 Z" id="Shape"></path>
                            <path d="M78.582,13.518 C77.274,13.518 76.326,13.251 75.738,12.717 C75.15,12.183 74.856,11.31 74.856,10.098 L74.856,7.218 C74.856,6.006 75.15,5.133 75.738,4.599 C76.326,4.065 77.274,3.798 78.582,3.798 L81.804,3.798 C83.124,3.798 84.078,4.065 84.666,4.599 C85.254,5.133 85.548,6.006 85.548,7.218 L85.548,10.098 C85.548,11.31 85.254,12.183 84.666,12.717 C84.078,13.251 83.124,13.518 81.804,13.518 L78.582,13.518 Z M83.136,7.218 C83.136,6.714 83.028,6.366 82.812,6.174 C82.596,5.982 82.26,5.886 81.804,5.886 L78.582,5.886 C78.126,5.886 77.79,5.982 77.574,6.174 C77.358,6.366 77.25,6.714 77.25,7.218 L77.25,10.098 C77.25,10.602 77.358,10.95 77.574,11.142 C77.79,11.334 78.126,11.43 78.582,11.43 L81.804,11.43 C82.26,11.43 82.596,11.334 82.812,11.142 C83.028,10.95 83.136,10.602 83.136,10.098 L83.136,7.218 Z" id="Shape"></path>
                            <polygon id="Path" points="89.19 13.518 89.19 0.81 91.584 0 91.584 13.518"></polygon>
                            <path d="M95.334,2.952 L95.334,0.378 L97.764,0.378 L97.764,2.952 L95.334,2.952 Z M95.334,13.518 L95.334,3.798 L97.746,3.798 L97.746,13.518 L95.334,13.518 Z" id="Shape"></path>
                            <path d="M101.118,13.518 C101.178,13.17 101.235,12.822 101.289,12.474 C101.343,12.126 101.4,11.778 101.46,11.43 L108.192,11.43 C108.528,11.43 108.777,11.364 108.939,11.232 C109.101,11.1 109.182,10.824 109.182,10.404 C109.182,9.984 109.101,9.708 108.939,9.576 C108.777,9.444 108.528,9.378 108.192,9.378 L104.628,9.378 C103.512,9.378 102.687,9.21 102.153,8.874 C101.619,8.538 101.352,7.956 101.352,7.128 L101.352,6.084 C101.352,5.64 101.421,5.268 101.559,4.968 C101.697,4.668 101.904,4.434 102.18,4.266 C102.456,4.098 102.81,3.978 103.242,3.906 C103.674,3.834 104.178,3.798 104.754,3.798 L111.378,3.798 L111.036,5.904 L104.862,5.904 C104.526,5.904 104.277,5.97 104.115,6.102 C103.953,6.234 103.872,6.504 103.872,6.912 C103.872,7.308 103.953,7.575 104.115,7.713 C104.277,7.851 104.526,7.92 104.862,7.92 L108.426,7.92 C109.53,7.92 110.352,8.091 110.892,8.433 C111.432,8.775 111.702,9.354 111.702,10.17 L111.702,11.25 C111.702,11.706 111.633,12.078 111.495,12.366 C111.357,12.654 111.15,12.885 110.874,13.059 C110.598,13.233 110.244,13.353 109.812,13.419 C109.38,13.485 108.876,13.518 108.3,13.518 L101.118,13.518 Z" id="Path"></path>
                        </g>
                        <g id="Group-6" transform="translate(43.7664, 0)">
                            <path d="M14.0208153,0.585786438 L24.627417,11.1923882 C25.4084656,11.9734367 25.4084656,13.2397667 24.627417,14.0208153 L14.0208153,24.627417 C13.2397667,25.4084656 11.9734367,25.4084656 11.1923882,24.627417 L0.585786438,14.0208153 C-0.195262146,13.2397667 -0.195262146,11.9734367 0.585786438,11.1923882 L11.1923882,0.585786438 C11.9734367,-0.195262146 13.2397667,-0.195262146 14.0208153,0.585786438 Z M9.59060172,7.85060172 L7.81460172,7.85060172 L7.81460172,16.1066017 L9.30260172,16.1066017 L9.30260172,10.7066017 L11.9066017,16.1066017 L13.4066017,16.1066017 L16.0226017,10.7066017 L16.0226017,16.1066017 L17.5106017,16.1066017 L17.5106017,7.85060172 L15.7706017,7.85060172 L12.6746017,14.4506017 L9.59060172,7.85060172 Z" id="Combined-Shape" fill="#000000"></path>
                            <g id="M" transform="translate(7.8146, 7.8506)"></g>
                        </g>
                    </g>
                </g>
            </g>
        </g>
    </g>
</svg>