<?xml version="1.0" encoding="UTF-8"?>
<svg width="134px" height="26px" viewBox="0 0 134 26" version="1.1" xmlns="http://www.w3.org/2000/svg" xmlns:xlink="http://www.w3.org/1999/xlink">
    <title>konstruktion</title>
    <g id="Pages" stroke="none" stroke-width="1" fill="none" fill-rule="evenodd">
        <g id="About" transform="translate(-766, -4713)">
            <g id="Group-20-Copy-2" transform="translate(79, 4456)">
                <g id="Group-7" transform="translate(3, 239.2599)">
                    <g id="logo-(2)" transform="translate(685, 18.5401)">
                        <g id="Path" stroke-linecap="round" stroke-linejoin="round" stroke="#000000" stroke-width="0.90170984">
                            <polygon points="17.850744 0 17.850744 23.8 0 23.8 0 8.16658115"></polygon>
                            <polyline points="35.7009848 23.8 35.7009848 8.16658115 17.850744 0"></polyline>
                            <polyline points="32.1135277 23.8 32.1135277 14.4504214 21.4382011 9.56658115 21.4382011 23.8"></polyline>
                        </g>
                        <path d="M45.1295208,20.3 L45.1295208,18.0152 L46.35132,16.8952 L48.4647025,20.3 L50.4239841,20.3 L47.4850617,15.7416 L50.3689481,12.6168 L48.3436233,12.6168 L45.1295208,16.1112 L45.1295208,12.6168 L43.489448,12.6168 L43.489448,20.3 L45.1295208,20.3 Z M54.9919722,20.4344 C55.806505,20.4344 56.5017932,20.2888 57.0778366,19.9976 C57.6538801,19.7064 58.0960026,19.2658667 58.4042043,18.676 C58.7124059,18.0861333 58.8665067,17.3469333 58.8665067,16.4584 C58.8665067,15.5549333 58.7124059,14.8101333 58.4042043,14.224 C58.0960026,13.6378667 57.6538801,13.2010667 57.0778366,12.9136 C56.5017932,12.6261333 55.806505,12.4824 54.9919722,12.4824 C54.1921156,12.4824 53.5023311,12.6261333 52.9226186,12.9136 C52.342906,13.2010667 51.8989489,13.6378667 51.5907473,14.224 C51.2825457,14.8101333 51.1284449,15.5549333 51.1284449,16.4584 C51.1284449,17.3469333 51.2825457,18.0861333 51.5907473,18.676 C51.8989489,19.2658667 52.342906,19.7064 52.9226186,19.9976 C53.5023311,20.2888 54.1921156,20.4344 54.9919722,20.4344 Z M54.9919722,19.068 C54.6397418,19.068 54.3278711,19.0157333 54.0563602,18.9112 C53.7848492,18.8066667 53.5573671,18.6498667 53.3739138,18.4408 C53.1904604,18.2317333 53.0528704,17.976 52.9611438,17.6736 C52.8694171,17.3712 52.8235538,17.0258667 52.8235538,16.6376 L52.8235538,16.6376 L52.8235538,16.2904 C52.8235538,15.8946667 52.8694171,15.5437333 52.9611438,15.2376 C53.0528704,14.9314667 53.1904604,14.6757333 53.3739138,14.4704 C53.5573671,14.2650667 53.7848492,14.1101333 54.0563602,14.0056 C54.3278711,13.9010667 54.6397418,13.8488 54.9919722,13.8488 C55.3515408,13.8488 55.6670804,13.9010667 55.9385914,14.0056 C56.2101024,14.1101333 56.4375845,14.2650667 56.6210378,14.4704 C56.8044912,14.6757333 56.9439157,14.9314667 57.0393114,15.2376 C57.1347072,15.5437333 57.182405,15.8946667 57.182405,16.2904 L57.182405,16.2904 L57.182405,16.6376 C57.182405,17.0258667 57.1347072,17.3712 57.0393114,17.6736 C56.9439157,17.976 56.8044912,18.2317333 56.6210378,18.4408 C56.4375845,18.6498667 56.2101024,18.8066667 55.9385914,18.9112 C55.6670804,19.0157333 55.3515408,19.068 54.9919722,19.068 Z M61.7503931,20.3 L61.7503931,15.4168 L61.8054291,15.4168 C61.8421198,15.484 61.9008249,15.5810667 61.9815443,15.708 C62.0622638,15.8349333 62.1393142,15.9506667 62.2126955,16.0552 L62.2126955,16.0552 L65.316726,20.3 L66.8247124,20.3 L66.8247124,12.6168 L65.2726972,12.6168 L65.2726972,17.4664 L65.2176612,17.4664 C65.1956468,17.4141333 65.155287,17.3432 65.096582,17.2536 C65.0378769,17.164 64.9755028,17.0725333 64.9094596,16.9792 C64.8434164,16.8858667 64.7883804,16.8130667 64.7443516,16.7608 L64.7443516,16.7608 L61.7063643,12.6168 L60.1983779,12.6168 L60.1983779,20.3 L61.7503931,20.3 Z M71.4367293,20.4344 C72.0604709,20.4344 72.6144997,20.3522667 73.0988165,20.188 C73.5831333,20.0237333 73.9647165,19.7624 74.2435653,19.404 C74.5224142,19.0456 74.6618389,18.5714667 74.6618389,17.9816 C74.6618389,17.6381333 74.5957957,17.3432 74.4637093,17.0968 C74.3316229,16.8504 74.1555077,16.6432 73.9353637,16.4752 C73.7152197,16.3072 73.465723,16.1672 73.1868741,16.0552 C72.9080253,15.9432 72.6218381,15.8461333 72.3283125,15.764 C72.0347869,15.6818667 71.7485997,15.6072 71.4697509,15.54 C71.190902,15.4728 70.9395705,15.3962667 70.7157577,15.3104 C70.4919448,15.2245333 70.3158296,15.1237333 70.1874121,15.008 C70.0589945,14.8922667 69.9947861,14.7448 69.9947861,14.5656 C69.9947861,14.4088 70.0516568,14.2725333 70.1653977,14.1568 C70.2791385,14.0410667 70.4442465,13.9533333 70.6607217,13.8936 C70.8771968,13.8338667 71.1395349,13.804 71.4477365,13.804 C71.7339237,13.804 71.9834205,13.8450667 72.1962261,13.9272 C72.4090317,14.0093333 72.5741397,14.1213333 72.6915501,14.2632 C72.8089605,14.4050667 72.8676653,14.5768 72.8676653,14.7784 L72.8676653,14.7784 L72.8676653,14.868 L74.4637093,14.868 L74.4637093,14.7336 C74.4637093,14.3453333 74.3848242,14.0093333 74.2270545,13.7256 C74.0692849,13.4418667 73.850975,13.2066667 73.5721261,13.02 C73.2932773,12.8333333 72.970399,12.6970667 72.6034925,12.6112 C72.2365861,12.5253333 71.8476645,12.4824 71.4367293,12.4824 C70.9964413,12.4824 70.5891749,12.5253333 70.2149301,12.6112 C69.8406853,12.6970667 69.5104693,12.8296 69.224282,13.0088 C68.9380948,13.188 68.7161163,13.4157333 68.5583464,13.692 C68.4005766,13.9682667 68.3216916,14.2968 68.3216916,14.6776 C68.3216916,15.036 68.3877348,15.3421333 68.5198212,15.596 C68.6519076,15.8498667 68.8280228,16.0589333 69.0481668,16.2232 C69.2683108,16.3874667 69.5178076,16.5274667 69.7966565,16.6432 C70.0755053,16.7589333 70.3616925,16.856 70.6552181,16.9344 C70.9487436,17.0128 71.2349308,17.0893333 71.5137797,17.164 C71.7926285,17.2386667 72.0439601,17.3208 72.2677729,17.4104 C72.4915857,17.5 72.6677009,17.6082667 72.7961185,17.7352 C72.9245361,17.8621333 72.9887445,18.0264 72.9887445,18.228 C72.9887445,18.34 72.9685649,18.4408 72.9282049,18.5304 C72.887845,18.62 72.8254713,18.6984 72.7410825,18.7656 C72.6566937,18.8328 72.5502913,18.8906667 72.4218737,18.9392 C72.2934561,18.9877333 72.1466937,19.0250667 71.9815857,19.0512 C71.8164777,19.0773333 71.6275205,19.0904 71.4147149,19.0904 C71.0844989,19.0904 70.7946428,19.0493333 70.5451461,18.9672 C70.2956493,18.8850667 70.1066928,18.7618667 69.9782753,18.5976 C69.8498577,18.4333333 69.7856493,18.2317333 69.7856493,17.9928 L69.7856493,17.9928 L69.7856493,17.892 C69.7856493,17.8546667 69.7893181,17.8248 69.7966565,17.8024 L69.7966565,17.8024 L68.1675908,17.8024 C68.1602527,17.8248 68.1565836,17.8565333 68.1565836,17.8976 L68.1565836,17.8976 L68.1565836,18.0152 C68.1565836,18.4482667 68.2428067,18.816 68.4152528,19.1184 C68.587699,19.4208 68.8261881,19.6709333 69.1307208,19.8688 C69.4352536,20.0666667 69.7856493,20.2104 70.1819085,20.3 C70.5781677,20.3896 70.9964413,20.4344 71.4367293,20.4344 Z M79.4829926,20.3 L79.4829926,14.0168 L81.9155839,14.0168 L81.9155839,12.6168 L75.4103286,12.6168 L75.4103286,14.0168 L77.8319126,14.0168 L77.8319126,20.3 L79.4829926,20.3 Z M84.6673839,20.3 L84.6673839,17.5 L86.7697592,17.5 L88.1016304,20.3 L89.9178184,20.3 L88.3768104,17.22 C88.795084,17.0184 89.1142928,16.7253333 89.3344368,16.3408 C89.5545808,15.9562667 89.6646528,15.5138667 89.6646528,15.0136 C89.6646528,14.5432 89.5729264,14.1269333 89.3894728,13.7648 C89.2060192,13.4026667 88.9290052,13.1208 88.5584292,12.9192 C88.1878532,12.7176 87.7237167,12.6168 87.1660184,12.6168 L87.1660184,12.6168 L83.0273111,12.6168 L83.0273111,20.3 L84.6673839,20.3 Z M86.9458744,16.1784 L84.6673839,16.1784 L84.6673839,13.972 L86.9458744,13.972 C87.1733567,13.972 87.364148,14.0130667 87.5182488,14.0952 C87.6723496,14.1773333 87.7897599,14.2986667 87.8704792,14.4592 C87.9511984,14.6197333 87.9915584,14.812 87.9915584,15.036 C87.9915584,15.3869333 87.8998319,15.6650667 87.7163784,15.8704 C87.5329248,16.0757333 87.2760904,16.1784 86.9458744,16.1784 L86.9458744,16.1784 Z M94.3317057,20.4344 C95.0288282,20.4344 95.6250517,20.3224 96.1203757,20.0984 C96.6156997,19.8744 96.9954482,19.5365333 97.259621,19.0848 C97.5237938,18.6330667 97.6558802,18.0712 97.6558802,17.3992 L97.6558802,17.3992 L97.6558802,12.6168 L96.0048001,12.6168 L96.0048001,17.3544 C96.0048001,17.9069333 95.8598718,18.3306667 95.5700157,18.6256 C95.2801597,18.9205333 94.8673897,19.068 94.3317057,19.068 C93.7960217,19.068 93.3850865,18.9205333 93.0988993,18.6256 C92.8127121,18.3306667 92.6696185,17.9069333 92.6696185,17.3544 L92.6696185,17.3544 L92.6696185,12.6168 L91.0185384,12.6168 L91.0185384,17.3992 C91.0185384,18.0712 91.1506248,18.6330667 91.4147976,19.0848 C91.6789705,19.5365333 92.0587189,19.8744 92.5540429,20.0984 C93.0493669,20.3224 93.6419209,20.4344 94.3317057,20.4344 Z M100.936026,20.3 L100.936026,18.0152 L102.157825,16.8952 L104.271207,20.3 L106.230489,20.3 L103.291567,15.7416 L106.175453,12.6168 L104.150128,12.6168 L100.936026,16.1112 L100.936026,12.6168 L99.295953,12.6168 L99.295953,20.3 L100.936026,20.3 Z M110.78747,20.3 L110.78747,14.0168 L113.220061,14.0168 L113.220061,12.6168 L106.714806,12.6168 L106.714806,14.0168 L109.13639,14.0168 L109.13639,20.3 L110.78747,20.3 Z M115.971861,20.3 L115.971861,12.6168 L114.331788,12.6168 L114.331788,20.3 L115.971861,20.3 Z M121.16726,20.4344 C121.981793,20.4344 122.677081,20.2888 123.253124,19.9976 C123.829167,19.7064 124.27129,19.2658667 124.579492,18.676 C124.887693,18.0861333 125.041794,17.3469333 125.041794,16.4584 C125.041794,15.5549333 124.887693,14.8101333 124.579492,14.224 C124.27129,13.6378667 123.829167,13.2010667 123.253124,12.9136 C122.677081,12.6261333 121.981793,12.4824 121.16726,12.4824 C120.367403,12.4824 119.677619,12.6261333 119.097906,12.9136 C118.518193,13.2010667 118.074237,13.6378667 117.766035,14.224 C117.457833,14.8101333 117.303733,15.5549333 117.303733,16.4584 C117.303733,17.3469333 117.457833,18.0861333 117.766035,18.676 C118.074237,19.2658667 118.518193,19.7064 119.097906,19.9976 C119.677619,20.2888 120.367403,20.4344 121.16726,20.4344 Z M121.16726,19.068 C120.815029,19.068 120.503159,19.0157333 120.231648,18.9112 C119.960137,18.8066667 119.732655,18.6498667 119.549201,18.4408 C119.365748,18.2317333 119.228158,17.976 119.136431,17.6736 C119.044705,17.3712 118.998841,17.0258667 118.998841,16.6376 L118.998841,16.6376 L118.998841,16.2904 C118.998841,15.8946667 119.044705,15.5437333 119.136431,15.2376 C119.228158,14.9314667 119.365748,14.6757333 119.549201,14.4704 C119.732655,14.2650667 119.960137,14.1101333 120.231648,14.0056 C120.503159,13.9010667 120.815029,13.8488 121.16726,13.8488 C121.526829,13.8488 121.842368,13.9010667 122.113879,14.0056 C122.38539,14.1101333 122.612872,14.2650667 122.796325,14.4704 C122.979779,14.6757333 123.119203,14.9314667 123.214599,15.2376 C123.309995,15.5437333 123.357693,15.8946667 123.357693,16.2904 L123.357693,16.2904 L123.357693,16.6376 C123.357693,17.0258667 123.309995,17.3712 123.214599,17.6736 C123.119203,17.976 122.979779,18.2317333 122.796325,18.4408 C122.612872,18.6498667 122.38539,18.8066667 122.113879,18.9112 C121.842368,19.0157333 121.526829,19.068 121.16726,19.068 Z M127.925681,20.3 L127.925681,15.4168 L127.980717,15.4168 C128.017407,15.484 128.076113,15.5810667 128.156832,15.708 C128.237551,15.8349333 128.314602,15.9506667 128.387983,16.0552 L128.387983,16.0552 L131.492014,20.3 L133,20.3 L133,12.6168 L131.447985,12.6168 L131.447985,17.4664 L131.392949,17.4664 C131.370934,17.4141333 131.330574,17.3432 131.27187,17.2536 C131.213165,17.164 131.15079,17.0725333 131.084747,16.9792 C131.018704,16.8858667 130.963668,16.8130667 130.919639,16.7608 L130.919639,16.7608 L127.881652,12.6168 L126.373665,12.6168 L126.373665,20.3 L127.925681,20.3 Z" id="KONSTRUKTION" fill="#000000" fill-rule="nonzero"></path>
                    </g>
                </g>
            </g>
        </g>
    </g>
</svg>