<svg xmlns="http://www.w3.org/2000/svg" width="134" height="33" viewBox="0 0 134 33"><g fill="none" fill-rule="evenodd"><g fill="#000" fill-rule="nonzero"><path d="M43.62 27.15a8.01 8.01 0 0 1-5.52-2.18 7.45 7.45 0 0 1-1.68-2.48 8 8 0 0 1-.6-3.15 7.48 7.48 0 0 1 4.78-7.22 8.01 8.01 0 0 1 3.02-.56c1.1 0 2.12.18 3.05.56a6.67 6.67 0 0 1 3.9 4.28l-2.33.72a5.35 5.35 0 0 0-1.73-2.46c-.78-.6-1.72-.9-2.82-.9a5.4 5.4 0 0 0-2.72.68 4.9 4.9 0 0 0-1.89 1.93c-.46.84-.7 1.83-.7 2.97 0 1.15.23 2.14.68 2.99.45.84 1.07 1.5 1.86 1.95a5.27 5.27 0 0 0 7.46-2.56l2.37.55a6.66 6.66 0 0 1-1.63 2.67 7.4 7.4 0 0 1-2.53 1.65c-.95.38-1.94.56-2.97.56ZM51.95 24.23V10.72h2.51v13.29c0 .32.1.57.29.75.19.17.41.26.68.26.17 0 .33-.03.46-.09l.53 1.85c-.43.25-.93.37-1.52.37-.47 0-.93-.1-1.39-.3-.45-.2-.82-.5-1.12-.94-.3-.43-.44-1-.44-1.68ZM62.35 27.15a5.43 5.43 0 0 1-4.92-2.95 6.74 6.74 0 0 1-.76-3.27c0-1.25.25-2.34.76-3.27a5.48 5.48 0 0 1 4.92-2.94c1 0 1.87.25 2.62.74.74.5 1.29 1.17 1.62 2.04v-2.62h2.53V27H68a1.37 1.37 0 0 1-1.4-1.4v-1.24a4.25 4.25 0 0 1-1.63 2.05 4.6 4.6 0 0 1-2.62.74Zm.57-2.17a3.63 3.63 0 0 0 3.15-1.84c.35-.61.52-1.35.52-2.21 0-.88-.17-1.62-.52-2.21a3.6 3.6 0 0 0-4.92-1.36c-.57.31-1.02.76-1.38 1.36-.35.6-.52 1.33-.52 2.2 0 .87.17 1.61.52 2.22a3.54 3.54 0 0 0 3.15 1.84ZM71.42 27V14.88h2.51v2.53c.2-.52.5-.97.9-1.38.41-.4.89-.72 1.42-.95a4 4 0 0 1 1.62-.36c.92 0 1.73.2 2.43.6.7.41 1.24 1 1.63 1.76.39.76.58 1.68.58 2.77V27h-2.48v-6.56c0-1.1-.28-1.96-.84-2.6a2.8 2.8 0 0 0-2.2-.94c-.59 0-1.11.16-1.57.49-.47.32-.83.76-1.1 1.33-.26.56-.39 1.21-.39 1.94V27h-2.5ZM92.89 27.18v-12.3h2.5v12.3a6.5 6.5 0 0 1-.4 2.32 5.08 5.08 0 0 1-3.03 3 7.1 7.1 0 0 1-2.53.42c-.97 0-1.82-.16-2.57-.48a5.04 5.04 0 0 1-1.92-1.4 6.69 6.69 0 0 1-1.23-2.3l2.29-.82c.3.88.74 1.58 1.29 2.1.55.5 1.25.76 2.1.76 1.04 0 1.88-.3 2.53-.93.64-.62.97-1.52.97-2.67Zm.52-5.57a8.28 8.28 0 0 1-.5 2.75 3.67 3.67 0 0 1-2.47 2.35 5.27 5.27 0 0 1-3.87-.38 4 4 0 0 1-1.67-1.73c-.4-.76-.6-1.7-.6-2.84v-6.88h2.5v6.36c0 1.11.27 1.97.83 2.58.56.61 1.29.91 2.2.91.61 0 1.15-.16 1.61-.48.47-.32.82-.76 1.07-1.32.25-.56.38-1.2.38-1.91l.52.59ZM103 27.15c-.99 0-1.88-.15-2.68-.46a5.88 5.88 0 0 1-3.34-3.24 6.4 6.4 0 0 1-.45-2.43 6.26 6.26 0 0 1 1.92-4.58c.6-.56 1.28-.98 2.06-1.28a6.86 6.86 0 0 1 4.53-.13c.63.2 1.18.5 1.64.86.46.37.82.8 1.07 1.28.25.48.37 1 .37 1.56 0 .78-.23 1.42-.68 1.93-.45.52-1.05.92-1.78 1.21-.74.3-1.54.5-2.42.6a15.68 15.68 0 0 1-3.17.05 58.36 58.36 0 0 1-.86-.03c.1.48.34.92.7 1.3.35.4.8.7 1.35.92a4.58 4.58 0 0 0 4.57-.66c.41-.3.76-.66 1.04-1.05l1.87 1.34a7.02 7.02 0 0 1-3.59 2.52c-.69.2-1.4.3-2.15.3Zm-2.16-6.6c.54 0 1.1-.02 1.65-.07a8.2 8.2 0 0 0 1.55-.29 3.1 3.1 0 0 0 1.16-.58c.29-.25.44-.57.44-.97 0-.34-.11-.64-.32-.91a2.18 2.18 0 0 0-.9-.65 4.1 4.1 0 0 0-3.39.26 3.84 3.84 0 0 0-1.97 3.15 33.52 33.52 0 0 0 1.78.06ZM115.09 27.15a6.08 6.08 0 0 1-3.08-.77 5.42 5.42 0 0 1-2.1-2.17 6.8 6.8 0 0 1-.76-3.28c0-1.26.25-2.36.75-3.28.51-.92 1.21-1.64 2.1-2.16.9-.5 1.93-.77 3.09-.77.7 0 1.34.08 1.92.22a4.54 4.54 0 0 1 2.7 1.81c.34.47.61 1.02.83 1.65l-2.4.77a3.67 3.67 0 0 0-1.18-1.75 3 3 0 0 0-1.87-.58c-.68 0-1.27.15-1.78.47-.5.31-.9.78-1.17 1.39-.28.6-.42 1.35-.42 2.23 0 .86.14 1.6.42 2.22.28.62.67 1.09 1.17 1.4.51.33 1.1.5 1.78.5.85 0 1.54-.24 2.09-.7.54-.46.93-1.09 1.16-1.88l2.33.55a6.36 6.36 0 0 1-1.04 2.09 5.07 5.07 0 0 1-1.83 1.5c-.74.36-1.64.54-2.71.54ZM127.44 27.15a6.22 6.22 0 0 1-3.1-.77 5.65 5.65 0 0 1-2.17-2.17 6.5 6.5 0 0 1-.8-3.28c0-1.26.27-2.36.82-3.28a5.79 5.79 0 0 1 2.24-2.16 6.4 6.4 0 0 1 3.12-.77c1.16 0 2.2.26 3.14.77a5.8 5.8 0 0 1 2.22 2.16c.55.92.82 2.02.82 3.28 0 1.24-.28 2.34-.84 3.28a5.85 5.85 0 0 1-2.28 2.17c-.96.52-2.01.77-3.17.77Zm0-2.17c.63 0 1.23-.15 1.8-.46.56-.3 1.02-.75 1.38-1.35.36-.6.54-1.35.54-2.24 0-.91-.18-1.66-.53-2.26-.35-.6-.8-1.03-1.35-1.33a3.7 3.7 0 0 0-3.53 0c-.55.3-.99.74-1.32 1.33-.34.6-.51 1.35-.51 2.26 0 .9.16 1.64.48 2.24a3.28 3.28 0 0 0 3.04 1.8Z"></path></g><g><path d="M23.14 9.9c-3.3.77-7.1 2.3-9.72 5.35-2.12 2.48-3.16 5.59-3.63 8.5a8.36 8.36 0 0 0-1.36-2.25c-1.43-1.66-3.46-2.54-5.29-3v2.25l7.48 7.14c.03-.2.12-.4.25-.57l12.27-9.42v-8Z" fill-opacity=".2" fill="#FFF"></path><path d="M26.73 12.62s-9.06-.32-13.66 5.04c-3.28 3.82-3.41 9.5-3.22 12.45l8.54-7.77L11.82 32c2.87-.2 8.56-1.08 11.9-4.99 4.61-5.36 3.01-14.39 3.01-14.39Z" fill="#3CA200"></path><path d="m4.95 25.65 4.9 4.46c.11-1.7.04-4.96-1.85-7.15-2.64-3.08-7.85-2.9-7.85-2.9s-.91 5.2 1.73 8.27c1.92 2.24 5.2 2.75 6.84 2.87l-3.77-5.55Z" fill="#3CA200"></path><ellipse fill="#F2D701" cx="7.69" cy="11.74" rx="3.02" ry="3"></ellipse></g></g></svg>